<svg width="67" height="67" xmlns="http://www.w3.org/2000/svg" xmlns:xlink="http://www.w3.org/1999/xlink" xml:space="preserve" overflow="hidden"><g><path d="M23.0312 21.4958C23.0312 24.9649 20.219 27.7771 16.75 27.7771 13.281 27.7771 10.4688 24.9649 10.4688 21.4958 10.4688 18.0268 13.281 15.2146 16.75 15.2146 20.219 15.2146 23.0312 18.0268 23.0312 21.4958Z"/><path d="M56.5312 21.4958C56.5312 24.9649 53.719 27.7771 50.25 27.7771 46.781 27.7771 43.9688 24.9649 43.9688 21.4958 43.9688 18.0268 46.781 15.2146 50.25 15.2146 53.719 15.2146 56.5312 18.0268 56.5312 21.4958Z"/><path d="M46.0625 51.7854 46.0625 45.5042C46.0625 44.5271 45.6438 43.55 44.8062 42.9917 43.1313 41.5958 40.8979 40.6188 38.6646 40.0604 37.1292 39.6417 35.3146 39.2229 33.5 39.2229 31.825 39.2229 30.0104 39.5021 28.3354 40.0604 26.1021 40.6188 24.0083 41.7354 22.1938 42.9917 21.3563 43.6896 20.9375 44.5271 20.9375 45.5042L20.9375 51.7854 46.0625 51.7854Z"/><path d="M39.7812 31.2667C39.7812 34.7357 36.969 37.5479 33.5 37.5479 30.031 37.5479 27.2188 34.7357 27.2188 31.2667 27.2188 27.7976 30.031 24.9854 33.5 24.9854 36.969 24.9854 39.7812 27.7976 39.7812 31.2667Z"/><path d="M61.5563 33.2208C59.8813 31.825 57.6479 30.8479 55.4146 30.2896 53.8792 29.8708 52.0646 29.4521 50.25 29.4521 48.575 29.4521 46.7604 29.7312 45.0854 30.2896 44.2479 30.5688 43.4104 30.8479 42.5729 31.2667L42.5729 31.4062C42.5729 33.7792 41.5958 36.0125 40.0604 37.5479 42.7125 38.3854 44.8062 39.5021 46.4813 40.7583 46.9 41.1771 47.3188 41.4563 47.5979 42.0146L62.8125 42.0146 62.8125 35.7333C62.8125 34.7563 62.3938 33.7792 61.5563 33.2208Z"/><path d="M20.5188 40.7583 20.5188 40.7583C22.4729 39.3625 24.7063 38.2458 26.9396 37.5479 25.4042 35.8729 24.4271 33.7792 24.4271 31.4062 24.4271 31.2667 24.4271 31.2667 24.4271 31.1271 23.5896 30.8479 22.7521 30.4292 21.9146 30.2896 20.3792 29.8708 18.5646 29.4521 16.75 29.4521 15.075 29.4521 13.2604 29.7312 11.5854 30.2896 9.35208 30.9875 7.25833 31.9646 5.44375 33.2208 4.60625 33.7792 4.1875 34.7563 4.1875 35.7333L4.1875 42.0146 19.2625 42.0146C19.6813 41.4563 19.9604 41.1771 20.5188 40.7583Z"/></g></svg>