<svg width="67" height="67" xmlns="http://www.w3.org/2000/svg" xmlns:xlink="http://www.w3.org/1999/xlink" xml:space="preserve" overflow="hidden"><g><path d="M55.1354 45.3353C55.0592 43.305 54.1178 41.4044 52.5489 40.1135 50.9386 38.795 49.1664 37.6874 47.2755 36.8179 46.163 36.2847 44.9249 35.7654 43.5667 35.2511 44.9926 32.4978 48.5289 24.4431 44.6716 18.6099L44.6716 18.1458 45.3695 18.1458C46.1404 18.1458 46.7653 17.5209 46.7653 16.75 46.7653 15.9791 46.1404 15.3542 45.3695 15.3542L44.6716 15.3542C44.4285 11.5001 42.2115 8.04509 38.8091 6.21844L37.6924 10.6363C37.6137 10.9553 37.323 11.1762 36.9945 11.1667L36.827 11.1667C36.4497 11.0877 36.2078 10.7179 36.2867 10.3407 36.2867 10.3405 36.2868 10.3405 36.2868 10.3403 36.2868 10.3271 36.2931 10.3145 36.2966 10.3013L37.6226 5.07385C37.3896 4.14482 36.5558 3.4924 35.5979 3.48958L31.4104 3.48958C30.4529 3.49272 29.6195 4.14507 29.3865 5.07385L30.7125 10.3013C30.8137 10.6725 30.5951 11.0556 30.224 11.1576L30.1821 11.1667 30.0146 11.1667C29.6861 11.1762 29.3954 10.9553 29.3167 10.6363L28.2349 6.21844C24.8325 8.04509 22.6154 11.5001 22.3724 15.3542L21.6396 15.3542C20.8687 15.3542 20.2438 15.9791 20.2438 16.75 20.2438 17.5209 20.8687 18.1458 21.6396 18.1458L22.3375 18.1458 22.3375 18.6113C18.4773 24.4494 22.0235 32.5117 23.4472 35.2581L21.7464 35.956 20.0672 36.6678C18.0516 37.5619 16.1643 38.7209 14.4553 40.1142 12.8787 41.4117 11.9351 43.3239 11.8646 45.3646L11.8702 57.627 12.4913 58.0408C13.8509 58.9481 16.0919 59.6698 18.8424 60.2149L18.8424 55.8333 32.1028 55.8333 32.1028 61.4432C32.6346 61.4516 33.1671 61.4558 33.7003 61.4558 34.0988 61.4558 34.4966 61.4509 34.8944 61.446L34.8944 55.8333 48.1549 55.8333 48.1549 60.2686C51.0163 59.7103 53.2992 58.953 54.5757 57.9969L55.134 57.5781ZM25.125 23.0312 25.125 22.9398C27.2885 22.6607 33.0729 21.6138 35.0487 18.1458L35.5065 18.1458C37.8822 19.455 40.0309 21.1393 41.8694 23.1338 41.7251 27.757 37.8603 31.3878 33.2372 31.2434 28.7772 31.1042 25.2096 27.4926 25.125 23.0312ZM32.1042 53.0417 19.0657 53.0417 21.2383 39.1783 27.1434 36.76C27.1957 36.7383 27.2432 36.7083 27.2941 36.6846L32.1077 48.1562ZM33.5 36.9896C31.6531 37.007 29.814 36.7482 28.0437 36.2219 28.8466 35.5601 29.3107 34.5733 29.3083 33.5328L29.3083 33.3751C31.9934 34.4722 35.0017 34.4722 37.6868 33.3751L37.6868 33.53C37.6843 34.5742 38.1512 35.5644 38.9584 36.2268 37.1867 36.7496 35.3472 37.0066 33.5 36.9896ZM34.8993 53.0417 34.8993 48.1562 39.7115 36.6895C39.7582 36.7111 39.8001 36.7383 39.851 36.7593L45.8259 39.2404 47.9469 53.0417Z"/></g></svg>